<svg width="62" height="55" viewBox="0 0 62 55" fill="none" xmlns="http://www.w3.org/2000/svg"><path d="M59.5 27.5C59.5 41.034 47.0301 52.5 31 52.5C14.9699 52.5 2.5 41.034 2.5 27.5C2.5 13.966 14.9699 2.5 31 2.5C47.0301 2.5 59.5 13.966 59.5 27.5Z" fill="#084955" stroke="#084955" stroke-width="5"/><ellipse rx="8.86273" ry="6.91761" transform="matrix(0.926685 -0.393332 0.493882 0.86466 38.7487 38.4196)" fill="#F5F5F5"/><ellipse rx="2.31204" ry="3.88673" transform="matrix(-0.052497 -0.960632 1.03303 0.134841 49.832 35.3941)" fill="#F5F5F5"/><ellipse rx="2.32091" ry="4.28196" transform="matrix(0.882459 0.541339 -0.414926 0.862653 48.2244 33.1854)" fill="#F5F5F5"/><ellipse rx="7.88781" ry="7.16013" transform="matrix(0.904129 -0.42726 0.49606 0.868288 15.6601 29.0553)" fill="#F5F5F5"/><path d="M16.183 32.8957C27.8078 29.7828 23.6992 43.3845 25.1768 38.493C26.6543 33.6015 27.3883 28.1335 16.183 32.8957Z" fill="#F5F5F5" stroke="#F5F5F5"/><path d="M22.7299 41.0923C22.4042 36.0263 16.9069 27.8281 14.2721 28.0525C11.6372 28.2769 22.8199 42.4926 22.7299 41.0923Z" fill="#F5F5F5" stroke="#F5F5F5"/><path d="M18.9547 31.5859C9.47173 38.4478 24.0711 43.2088 18.8208 41.4966C13.5705 39.7844 8.22893 37.1875 18.9547 31.5859Z" fill="#F5F5F5" stroke="#F5F5F5"/><ellipse rx="5.17385" ry="3.46072" transform="matrix(1.02095 -0.206823 0.36121 0.893578 29.0332 19.1481)" fill="#F5F5F5"/><ellipse rx="7.23116" ry="3.69796" transform="matrix(0.153813 -0.940275 1.00227 0.276837 32.8919 13.2352)" fill="#F5F5F5"/><ellipse rx="5.17385" ry="3.46072" transform="matrix(0.259557 -0.920607 -0.971745 -0.356029 34.1711 23.9648)" fill="#F5F5F5"/><ellipse rx="7.23116" ry="3.69796" transform="matrix(1.03927 -0.110184 -0.273129 -0.918813 40.7972 20.6461)" fill="#F5F5F5"/></svg>
