<svg width="60" height="59" viewBox="0 0 60 59" fill="none" xmlns="http://www.w3.org/2000/svg"><ellipse rx="24.5898" ry="22.8952" transform="matrix(0.956468 0.291836 -0.283059 0.959103 30 29.135)" fill="#002A32"/><path d="M14.7189 30.4382L32.8721 45.9082L34.9697 32.9781L40.8633 32.5832L40.5288 18.1688L19.8609 15.7255L14.7189 30.4382Z" fill="#F5F5F5"/><path d="M32.4933 23.5578L22.719 23.9855L29.0761 33.373L34.9697 32.9781M34.9697 32.9781L40.8633 32.5832L40.5288 18.1688L19.8609 15.7255L14.7189 30.4382L32.8721 45.9082L34.9697 32.9781Z" stroke="#002A32" stroke-width="2"/><path d="M39.5358 35.4885L40.5067 38.4181H43.6484L41.1067 40.2287L42.0775 43.1583L39.5358 41.3477L36.9941 43.1583L37.9649 40.2287L35.4232 38.4181H38.565L39.5358 35.4885Z" fill="white"/><path d="M44.0145 31.7198L44.7426 33.3474H47.0989L45.1926 34.3533L45.9208 35.9808L44.0145 34.9749L42.1082 35.9808L42.8363 34.3533L40.93 33.3474H43.2863L44.0145 31.7198Z" fill="white"/></svg>
