<svg width="61" height="54" viewBox="0 0 61 54" fill="none" xmlns="http://www.w3.org/2000/svg"><g clip-path="url(#clip0_166_140)"><path d="M12.6042 24.975L17.6458 20.475L31.5104 32.85L40.3333 24.975L47.8958 31.725V11.25H12.6042V24.975ZM10.0833 6.75H50.4167C51.0852 6.75 51.7264 6.98705 52.1992 7.40901C52.6719 7.83097 52.9375 8.40326 52.9375 9V45C52.9375 45.5967 52.6719 46.169 52.1992 46.591C51.7264 47.0129 51.0852 47.25 50.4167 47.25H10.0833C9.41477 47.25 8.77358 47.0129 8.30083 46.591C7.82809 46.169 7.5625 45.5967 7.5625 45V9C7.5625 8.40326 7.82809 7.83097 8.30083 7.40901C8.77358 6.98705 9.41477 6.75 10.0833 6.75ZM39.0729 22.5C38.0701 22.5 37.1083 22.1444 36.3992 21.5115C35.69 20.8786 35.2917 20.0201 35.2917 19.125C35.2917 18.2299 35.69 17.3714 36.3992 16.7385C37.1083 16.1056 38.0701 15.75 39.0729 15.75C40.0758 15.75 41.0375 16.1056 41.7467 16.7385C42.4558 17.3714 42.8542 18.2299 42.8542 19.125C42.8542 20.0201 42.4558 20.8786 41.7467 21.5115C41.0375 22.1444 40.0758 22.5 39.0729 22.5Z" fill="white"/></g><defs><clipPath id="clip0_166_140"><rect width="60.5" height="54" fill="white"/></clipPath></defs></svg>
