<svg xmlns="http://www.w3.org/2000/svg" fill="none" viewBox="2 2 32 32">
  <g clip-path="url(#a)">
    <path fill="#F5F5F5"
      d="M3.3 21a15 15 0 0 1 0-6c1.7.1 3.1-.4 3.6-1.6.5-1.1-.1-2.6-1.5-3.6a15 15 0 0 1 4.4-4.4c1 1.4 2.5 2 3.6 1.5 1.2-.5 1.7-2 1.5-3.6 2-.4 4.2-.4 6.2 0-.2 1.7.3 3.1 1.5 3.6 1.1.5 2.6-.1 3.6-1.5a15 15 0 0 1 4.4 4.4c-1.4 1-2 2.5-1.5 3.6.5 1.2 2 1.7 3.6 1.5.4 2 .4 4.2 0 6.2-1.7-.2-3.1.3-3.6 1.5-.5 1.1.1 2.6 1.5 3.6a15 15 0 0 1-4.4 4.4c-1-1.4-2.5-2-3.6-1.5-1.2.5-1.7 2-1.5 3.6-2 .4-4.2.4-6.2 0 .2-1.7-.3-3.1-1.5-3.6-1.1-.5-2.6.1-3.6 1.5a15 15 0 0 1-4.4-4.4c1.3-1 2-2.5 1.5-3.6-.5-1.2-2-1.7-3.6-1.5ZM6 18.4c1.7.5 3 1.5 3.7 3.1.7 1.7.4 3.4-.4 4.9l.4.4a6 6 0 0 1 4.9-.4c1.6.7 2.6 2 3 3.7h.7c.5-1.6 1.5-3 3.1-3.7 1.7-.7 3.4-.4 4.9.4l.4-.4a6 6 0 0 1-.4-4.9c.7-1.6 2-2.6 3.7-3v-.7c-1.6-.5-3-1.5-3.7-3.1-.7-1.7-.4-3.4.4-4.9l-.4-.4a6 6 0 0 1-4.9.4c-1.6-.7-2.6-2-3-3.7h-.7c-.5 1.7-1.5 3-3.1 3.7-1.7.7-3.4.4-4.9-.4l-.4.4a6 6 0 0 1 .4 4.9c-.7 1.6-2 2.6-3.7 3v.7Zm12 4.2a4.5 4.5 0 1 1 0-9 4.5 4.5 0 0 1 0 9Zm0-3a1.5 1.5 0 1 0 0-3 1.5 1.5 0 0 0 0 3Z" />
  </g>
  <defs>
    <clipPath id="a">
      <path fill="#fff" d="M0 0h36v36H0z" />
    </clipPath>
  </defs>
</svg>