<svg width="43" height="52" viewBox="0 0 43 52" fill="none" xmlns="http://www.w3.org/2000/svg"><rect x="10.625" y="14.2004" width="20.7188" height="37.2996" rx="10.3594" fill="#F5F5F5"/><rect x="3.54166" y="26.886" width="12.3958" height="8.8989" fill="#F5F5F5"/><rect x="28.3333" y="26.318" width="12.3958" height="8.8989" rx="4.44945" fill="#F5F5F5"/><rect width="13.2537" height="6.90625" rx="3.45312" transform="matrix(0 -1 -1 0 6.90625 40.1397)" fill="#F5F5F5"/><rect width="13.2537" height="6.72917" rx="3.36458" transform="matrix(0 -1 -1 0 42.5 35.2169)" fill="#F5F5F5"/><g clip-path="url(#clip0_166_141)"><path d="M35.3576 20.0383H6.43402V18.0345H7.8802V11.0521C7.8802 6.05459 13.7083 2.00385 20.8958 2.00385C28.0833 2.00385 33.9114 6.05459 33.9114 11.0521V18.0345H35.3576V20.0383ZM17.2804 21.0402H24.5113C24.5113 21.7045 24.1304 22.3416 23.4523 22.8114C22.7743 23.2811 21.8547 23.545 20.8958 23.545C19.9369 23.545 19.0173 23.2811 18.3393 22.8114C17.6613 22.3416 17.2804 21.7045 17.2804 21.0402Z" fill="#F5F5F5"/></g><defs><clipPath id="clip0_166_141"><rect width="34.7083" height="24.046" fill="white" transform="translate(3.54166)"/></clipPath></defs></svg>
