<svg width="58" height="46" viewBox="0 0 58 46" fill="none" xmlns="http://www.w3.org/2000/svg"><path d="M27.6195 1.31694C28.3922 0.579792 29.6078 0.57979 30.3805 1.31694L50.5012 20.5112C51.807 21.7568 50.9253 23.9583 49.1207 23.9583H8.87929C7.07467 23.9583 6.19302 21.7568 7.49879 20.5112L27.6195 1.31694Z" fill="#F5F5F5"/><path d="M9.4054 23.6389L15.5932 46H43.2319L48.5946 23.6389H9.4054Z" fill="#F5F5F5"/><rect x="36.8378" y="5.75" width="8.62162" height="11.5" fill="#F5F5F5"/><path d="M22.7297 29.9091C22.7297 26.4462 25.537 23.6389 29 23.6389C32.463 23.6389 35.2703 26.4462 35.2703 29.9092V33.8611H22.7297V29.9091Z" fill="#002A32"/><line x1="28.7162" y1="23.6389" x2="28.7162" y2="37.6944" stroke="#F5F5F5"/><line x1="19.5946" y1="29.5278" x2="36.8378" y2="29.5278" stroke="#F5F5F5"/></svg>
