<svg width="47" height="45" viewBox="0 0 47 45" fill="none" xmlns="http://www.w3.org/2000/svg"><g clip-path="url(#clip0_166_139)"><path d="M39.1667 5.625V31.875C39.1663 33.5259 38.597 35.1306 37.547 36.4402C36.497 37.7498 35.0251 38.6911 33.3595 39.1181C31.6939 39.5451 29.9276 39.434 28.3346 38.802C26.7417 38.17 25.411 37.0524 24.549 35.6226C23.687 34.1927 23.3419 32.5305 23.5671 30.8937C23.7923 29.257 24.5753 27.737 25.7946 26.5697C27.014 25.4024 28.6015 24.6529 30.3111 24.4375C32.0207 24.222 33.7567 24.5527 35.25 25.3781V11.25H17.625V31.875C17.6246 33.5259 17.0553 35.1306 16.0053 36.4402C14.9554 37.7498 13.4834 38.6911 11.8178 39.1181C10.1522 39.5451 8.38593 39.434 6.79297 38.802C5.20001 38.17 3.86935 37.0524 3.00737 35.6226C2.14538 34.1927 1.80023 32.5305 2.02544 30.8937C2.25065 29.257 3.03364 27.737 4.25298 26.5697C5.47232 25.4024 7.05987 24.6529 8.76943 24.4375C10.479 24.222 12.215 24.5527 13.7083 25.3781V5.625H39.1667Z" fill="#002A32"/></g><defs><clipPath id="clip0_166_139"><rect width="47" height="45" fill="white"/></clipPath></defs></svg>
